<svg xmlns="http://www.w3.org/2000/svg" xmlns:xlink="http://www.w3.org/1999/xlink" version="1.1" x="0px" y="0px" width="1920px" height="1080px" viewBox="0 0 1920 1080" enable-background="new 0 0 1920 1080" xml:space="preserve"><symbol id="seeds" viewBox="-12.656 -27.608 25.313 55.216"><path fill="#FFC758" stroke="#FFC758" stroke-width="15" stroke-miterlimit="10" d="M5.156 0c0-11.105-2.309-20.108-5.156-20.108S-5.156-11.105-5.156 0 -2.848 20.108 0 20.108 5.156 11.105 5.156 0z"/></symbol><g id="lettuce" display="none"><g display="inline"><path fill="none" stroke="#129E49" stroke-width="20" stroke-miterlimit="10" d="M409.621 372.096c45.896 0 45.896 40 91.792 40 45.897 0 45.897-40 91.794-40 45.896 0 45.896 40 91.792 40 45.898 0 45.898-40 91.795-40 45.897 0 45.897 40 91.794 40 45.897 0 45.897-40 91.795-40 45.896 0 45.896 40 91.793 40 45.898 0 45.898-40 91.797-40 45.9 0 45.9 40 91.801 40s45.9-40 91.801-40"/></g></g><g id="tomatoes" display="none"><path display="inline" fill="#ED1F24" stroke="#F26843" stroke-miterlimit="10" d="M858.095 487.593c0 13.254-5.372 23.999-12 23.999h-401.98c-6.627 0-12-10.745-12-23.999l0 0c0-13.254 5.372-23.999 12-23.999h401.98C852.723 463.594 858.095 474.339 858.095 487.593L858.095 487.593z"/><path display="inline" fill="#ED1F24" stroke="#F26843" stroke-miterlimit="10" d="M1302.073 487.593c0 13.254-5.372 23.999-11.999 23.999h-401.98c-6.627 0-12-10.745-12-23.999l0 0c0-13.254 5.372-23.999 12-23.999h401.98C1296.701 463.594 1302.073 474.339 1302.073 487.593L1302.073 487.593z"/></g><g id="patty" display="none"><path display="inline" fill="#804E1F" stroke="#804E1F" stroke-width="15" stroke-miterlimit="10" d="M1341.071 608.088c0 27.614-210.526 50-470.223 50l0 0c-259.698 0-470.224-22.386-470.224-50l0 0c0-27.614 210.526-50 470.224-50l0 0C1130.545 558.088 1341.071 580.474 1341.071 608.088L1341.071 608.088z"/></g><g id="bottom_bun_1_" display="none"><path id="bottom_bun" display="inline" fill="#F29821" stroke="#F29821" stroke-miterlimit="10" d="M416.39 702.081c-0.175 1.161-0.271 2.325-0.271 3.492 0 56.058 4.002 101.503 452.227 101.503 445.743 0 452.229-45.445 452.229-101.503 0-1.167-0.096-2.331-0.271-3.492H416.39z"/></g><g id="top_bun_1_"><path id="top_bun" fill="#F29821" stroke="#F29821" stroke-miterlimit="10" d="M867.846 118.11c-244.549 0-443.753 92.46-451.956 207.991h903.913C1311.6 210.57 1112.395 118.11 867.846 118.11z"/><use xlink:href="#seeds" width="25.313" height="55.216" x="-12.656" y="-27.608" transform="matrix(0.9792 0.1836 0.203 -0.8856 490.8955 288.731)" overflow="visible"/><use xlink:href="#seeds" width="25.313" height="55.216" x="-12.656" y="-27.608" transform="matrix(0.9367 -0.3167 -0.3501 -0.8472 684.2563 208.6875)" overflow="visible"/><use xlink:href="#seeds" width="25.313" height="55.216" x="-12.656" y="-27.608" transform="matrix(0.8318 -0.5021 -0.5551 -0.7523 882.0405 182.5513)" overflow="visible"/><use xlink:href="#seeds" width="25.313" height="55.216" x="-12.656" y="-27.608" transform="matrix(0.9519 0.277 0.3063 -0.8609 1084.3916 198.5156)" overflow="visible"/><use xlink:href="#seeds" width="25.313" height="55.216" x="-12.656" y="-27.608" transform="matrix(0.9393 -0.3103 -0.3431 -0.8495 1211.3994 258.1323)" overflow="visible"/><use xlink:href="#seeds" width="25.313" height="55.216" x="-12.656" y="-27.608" transform="matrix(0.9929 -0.1075 -0.1189 -0.898 968.5898 284.6074)" overflow="visible"/><use xlink:href="#seeds" width="25.313" height="55.216" x="-12.656" y="-27.608" transform="matrix(0.9515 -0.2782 -0.3076 -0.8606 928.8247 253.3916)" overflow="visible"/><use xlink:href="#seeds" width="25.313" height="55.216" x="-12.656" y="-27.608" transform="matrix(0.9933 -0.1043 -0.1153 -0.8984 703.833 272.835)" overflow="visible"/><use xlink:href="#seeds" width="25.313" height="55.216" x="-12.656" y="-27.608" transform="matrix(0.9678 0.2278 0.2518 -0.8753 614.4766 287.7134)" overflow="visible"/><use xlink:href="#seeds" width="25.313" height="55.216" x="-12.656" y="-27.608" transform="matrix(0.9941 0.0979 0.1082 -0.8991 771.5889 218.1924)" overflow="visible"/><use xlink:href="#seeds" width="25.313" height="55.216" x="-12.656" y="-27.608" transform="matrix(0.9374 -0.315 -0.3483 -0.8478 1018.4609 207.5317)" overflow="visible"/><use xlink:href="#seeds" width="25.313" height="55.216" x="-12.656" y="-27.608" transform="matrix(0.8014 -0.5409 -0.5981 -0.7248 1142.5146 278.9775)" overflow="visible"/></g><g id="cheese" display="none"><path display="inline" fill="#FFDA00" stroke="#F7EC1B" stroke-miterlimit="10" d="M1255.808 570.939c-19.857 37.033-45.823 84.695-45.823 84.695l-45.824 84.689 -71.935-93.665 -71.932-93.662C1020.294 552.997 1159.58 552.09 1255.808 570.939z"/></g></svg>